<?xml version="1.0" standalone="no"?>
<!DOCTYPE svg PUBLIC "-//W3C//DTD SVG 20010904//EN"
 "http://www.w3.org/TR/2001/REC-SVG-20010904/DTD/svg10.dtd">
<svg version="1.0" xmlns="http://www.w3.org/2000/svg"
 width="88.000000pt" height="88.000000pt" viewBox="0 0 88.000000 88.000000"
 preserveAspectRatio="xMidYMid meet">
<metadata>
Created by potrace 1.16, written by Peter Selinger 2001-2019
</metadata>
<g transform="translate(0.000000,88.000000) scale(0.100000,-0.100000)"
fill="#000000" stroke="none">
<path d="M604 834 c4 -12 2 -15 -9 -10 -15 5 -15 -13 1 -63 3 -9 -1 -11 -13
-6 -10 4 -29 9 -43 12 l-25 4 25 -15 25 -15 -32 -1 c-26 0 -33 -4 -33 -19 0
-16 8 -21 38 -23 37 -4 34 -7 -23 -25 -18 -6 -29 -15 -27 -24 2 -8 0 -11 -4
-7 -8 9 -34 -9 -34 -23 0 -5 8 -6 18 -3 9 2 7 -1 -5 -7 -24 -13 -27 -22 -13
-54 l9 -20 1 20 c2 11 2 26 1 34 -2 7 2 10 7 7 6 -3 12 1 15 8 3 8 18 23 32
32 25 16 27 16 41 -5 12 -17 19 -19 29 -11 11 9 12 3 8 -30 -4 -26 -2 -40 6
-40 6 0 11 -15 12 -32 1 -31 1 -32 9 -8 7 21 8 22 9 5 1 -11 4 -30 7 -42 5
-18 2 -23 -12 -23 -15 0 -16 -2 -5 -9 9 -6 11 -15 6 -27 -9 -22 -12 -30 -14
-44 0 -5 -9 -10 -18 -10 -15 0 -15 -2 -4 -9 12 -8 12 -12 2 -25 -7 -9 -16 -14
-20 -11 -4 2 -7 -6 -7 -18 1 -16 -6 -23 -23 -25 -18 -3 -21 -6 -11 -12 11 -7
11 -11 1 -24 -8 -9 -10 -16 -6 -16 10 0 29 25 64 85 38 65 59 130 66 201 6 66
4 61 29 66 15 2 22 -5 29 -29 11 -35 43 -46 54 -18 8 23 -17 104 -36 115 -14
8 -14 9 2 16 15 5 16 9 5 15 -24 16 10 10 50 -8 37 -16 45 -19 60 -22 4 -1 0
-6 -8 -11 -13 -8 -12 -10 3 -10 20 0 22 13 6 41 -7 14 -16 18 -30 14 -14 -5
-17 -2 -13 8 8 21 -45 31 -93 18 l-38 -10 24 19 c13 11 29 20 37 20 7 0 16 5
19 11 4 5 -10 3 -30 -5 -20 -9 -42 -13 -48 -9 -5 3 -8 2 -5 -3 3 -5 -4 -18
-15 -28 -20 -19 -20 -19 -13 5 4 13 10 42 13 65 4 34 1 45 -18 63 -27 25 -44
27 -35 5z m-17 -180 c-3 -3 -12 -4 -19 -1 -8 3 -5 6 6 6 11 1 17 -2 13 -5z"/>
<path d="M703 790 c-18 -11 -33 -22 -33 -26 0 -3 15 3 33 14 25 15 39 17 66
10 19 -5 35 -17 38 -28 5 -19 31 -35 42 -25 9 9 -24 60 -37 58 -7 -2 -12 2
-12 7 0 17 -64 11 -97 -10z"/>
<path d="M450 760 c0 -5 7 -7 15 -4 8 4 15 8 15 10 0 2 -7 4 -15 4 -8 0 -15
-4 -15 -10z"/>
<path d="M426 733 c-6 -14 -5 -15 5 -6 7 7 10 15 7 18 -3 3 -9 -2 -12 -12z"/>
<path d="M438 694 c-16 -8 -28 -17 -28 -20 0 -2 12 2 28 9 15 8 34 17 42 20
13 5 13 5 0 6 -8 0 -27 -7 -42 -15z"/>
<path d="M520 623 c0 -5 7 -16 14 -26 16 -20 30 -8 20 17 -6 16 -34 23 -34 9z"/>
<path d="M774 601 c11 -11 23 -21 28 -21 14 0 -1 19 -25 31 -22 12 -22 12 -3
-10z"/>
<path d="M856 595 c-3 -8 -1 -15 4 -15 6 0 10 7 10 15 0 8 -2 15 -4 15 -2 0
-6 -7 -10 -15z"/>
<path d="M497 534 c-37 -62 -34 -70 4 -11 18 26 30 49 28 52 -3 2 -17 -16 -32
-41z"/>
<path d="M817 573 c-2 -5 4 -21 13 -36 14 -23 19 -25 24 -12 3 9 2 13 -4 10
-6 -3 -10 3 -10 14 0 21 -15 37 -23 24z"/>
<path d="M431 544 c0 -11 3 -14 6 -6 3 7 2 16 -1 19 -3 4 -6 -2 -5 -13z"/>
<path d="M441 504 c0 -11 3 -14 6 -6 3 7 2 16 -1 19 -3 4 -6 -2 -5 -13z"/>
<path d="M731 473 c1 -17 3 -21 6 -10 2 9 9 17 14 17 6 0 7 5 4 10 -12 19 -25
10 -24 -17z"/>
<path d="M479 263 c-13 -16 -12 -17 4 -4 16 13 21 21 13 21 -2 0 -10 -8 -17
-17z"/>
</g>
</svg>
